<?xml version="1.0" encoding="UTF-8"?>
<!-- React logo SVG (simple, small) suitable for favicon -->
<svg xmlns="http://www.w3.org/2000/svg" viewBox="0 0 841.9 595.3">
  <g fill="#61DAFB">
    <path d="M666.3 296.5c0 56.2-45.5 101.7-101.7 101.7s-101.7-45.5-101.7-101.7 45.5-101.7 101.7-101.7 101.7 45.5 101.7 101.7z"/>
    <path d="M520.5 78.1c86.8 25.1 153 87.2 176.9 156.6 25.2 71.5 6.8 151.7-51.4 214.6-61.9 66-152.6 97.7-246.2 85.3C316 524.6 232 473.1 183.3 402 135.6 333.1 125 246.3 167.6 171.9 209.4 98.1 285 57.1 364.6 54.4c45.2-1.6 89.6 6.2 129.1 23.7z" opacity=".16"/>
  </g>
</svg>
